<?xml version="1.0" encoding="utf-8"?>
<!-- Generator: Adobe Illustrator 18.0.0, SVG Export Plug-In . SVG Version: 6.00 Build 0)  -->
<!DOCTYPE svg PUBLIC "-//W3C//DTD SVG 1.1//EN" "http://www.w3.org/Graphics/SVG/1.1/DTD/svg11.dtd">
<svg version="1.1" id="Layer_1" xmlns="http://www.w3.org/2000/svg" xmlns:xlink="http://www.w3.org/1999/xlink" x="0px" y="0px"
	 viewBox="0 0 50 50" enable-background="new 0 0 50 50" xml:space="preserve">
<circle fill="#949699" cx="25" cy="25" r="24.5"/>
<g>
	<path fill="#FFFFFF" d="M39.6,30.2c-1.2,0-2.2,1-2.2,2.2c0,0.1,0,0.2,0,0.3c-1,0.7-2.3,1.6-4.1,2.6c-1.6,1-3.4,1-5.1,1l-1.4-6.7
		c0,0-0.2-4.2-0.3-8.2h5.7l2.3-0.5c0.3,0.4,0.9,0.7,1.4,0.7c1,0,1.7-0.8,1.7-1.7c0-1-0.8-1.7-1.7-1.7c-0.6,0-1.1,0.3-1.4,0.8h-8.1
		c-0.1-1.7-0.2-3.3-0.2-4.2c1.8-0.6,3-2.2,3-4.1c0-2.3-1.9-4.3-4.3-4.3s-4.3,1.9-4.3,4.3c0,1.9,1.3,3.6,3,4.2c0,0.9-0.1,2.4-0.2,4.2
		h-7.9c-0.3-0.5-0.9-0.8-1.4-0.8c-1-0.1-1.8,0.7-1.8,1.7c0,1,0.8,1.7,1.7,1.7c0.6,0,1-0.3,1.4-0.7l2.3,0.5h5.7
		c-0.2,4-0.3,8.2-0.3,8.2L22,36c-2.2,0-4.3-0.2-6.1-1.4c-1.3-0.9-2.3-1.3-3-1.9c0-0.2,0-0.2,0-0.3c0-1.2-1-2.2-2.2-2.2
		c-1.2,0-2.2,1-2.2,2.2c0,1.2,1,2.2,2.2,2.2c0.2,0,0.3,0,0.5-0.1c0.9,0.7,2,1.7,3.4,2.6c1.8,1.2,4.2,2.5,6.6,3.2
		c0.4,0.2,3.2,1.9,4.1,1.9c0.8,0,3.3-1.6,3.8-1.8c2.5-0.7,4.9-2,6.7-3.2c1.4-1,2.6-1.8,3.4-2.6c0.2,0,0.3,0.1,0.5,0.1
		c1.2,0,2.2-1,2.2-2.2C41.8,31.1,40.8,30.2,39.6,30.2z M22.8,10.7c0-1.3,1-2.3,2.3-2.3s2.3,1,2.3,2.3s-1,2.3-2.3,2.3
		C23.8,12.9,22.8,12,22.8,10.7z"/>
</g>
</svg>
