<?xml version="1.0" encoding="utf-8"?>
<!-- Generator: Adobe Illustrator 18.0.0, SVG Export Plug-In . SVG Version: 6.00 Build 0)  -->
<!DOCTYPE svg PUBLIC "-//W3C//DTD SVG 1.1//EN" "http://www.w3.org/Graphics/SVG/1.1/DTD/svg11.dtd">
<svg version="1.1" id="Layer_1" xmlns="http://www.w3.org/2000/svg" xmlns:xlink="http://www.w3.org/1999/xlink" x="0px" y="0px"
	 viewBox="0 0 700 425" enable-background="new 0 0 700 425" xml:space="preserve">
<g id="XMLID_516_">
	<path id="XMLID_517_" fill="#CCD1D9" d="M591.8,22.3c0,0,22.4-0.8,22.4,18.9s0,77.1,0,77.1v103.9v104.2v42.4c0,0,0.5,11.1-3.2,11.3
		c-3.7,0.3-396.9,3.6-396.9,3.6L91.8,378c0,0-4.3,1.7-4.3-9.2c0-10.9,0-122.7,0-122.7V136V44.2c0,0-2-21.9,21.5-21.9
		s158.5,0,158.5,0h226.1L591.8,22.3z"/>
	<path id="XMLID_518_" fill="#A9B3BE" d="M593.3,24.4c0,0,19.2,1.7,19.2,17.2s0,28.8,0,28.8v44.6v46.5v59V276v54.6v38
		c0,0,1.1,8.5-11.9,10.2l-238.6,11.8L97.9,378.3c0,0-9-1-9-12.7s0-81.4,0-81.4V177.3V60.7V42.2c0,0,1.1-17.6,17.5-17.8
		s178.1,0,178.1,0l204.3-0.1L593.3,24.4z"/>
	<path id="XMLID_519_" fill="#444A54" d="M594.3,26c0,0,16.7,2,16.7,15.7s0,51.6,0,51.6v55v60.2v49.9V313v52.7v2.6
		c0,0,0.1,7.2-10.7,9.1c-10.9,1.9-43.4,9.5-43.4,9.5l-94.8-3.1l-76.2,0.8l-96.5,0.3l-80.9-1.6l-79.4,0.4l-29-6.7
		c0,0-8.7-1.1-8.7-10.3c0-9.2,0-35.4,0-35.4v-61.3v-53.2v-55.3v-60.1V48.4v-7.7c0,0,1.1-14.7,14.9-14.7s78,0,78,0h97.2h106.5h105.9
		H594.3z"/>
	<rect id="XMLID_520_" x="117.5" y="52.6" fill="#666F7A" width="466.7" height="292.2"/>
	<g id="XMLID_521_">
		<defs>
			<rect id="XMLID_535_" x="209.8" y="116.8" width="292.7" height="174.9"/>
		</defs>
		<clipPath id="XMLID_3_">
			<use xlink:href="#XMLID_535_"  overflow="visible"/>
		</clipPath>
		<rect id="XMLID_522_" x="209.8" y="116.8" clip-path="url(#XMLID_3_)" fill="#5385C5" width="292.7" height="174.9"/>
		<g id="XMLID_523_" clip-path="url(#XMLID_3_)">
			<defs>
				<rect id="XMLID_534_" x="209.8" y="116.8" width="292.7" height="174.9"/>
			</defs>
			<clipPath id="XMLID_4_">
				<use xlink:href="#XMLID_534_"  overflow="visible"/>
			</clipPath>
			
				<path id="XMLID_524_" clip-path="url(#XMLID_4_)" fill="#FBB533" stroke="#763E1B" stroke-width="2.595" stroke-miterlimit="10" d="
				M217.8,334.2c0,0,36.9-41.2,56.2-59.9c19.3-18.6,47.5-57.9,25.3-112.3S203.1,95.6,159.4,132s-35.8,96.5-16.1,120.3
				S217.8,334.2,217.8,334.2z"/>
			<g id="XMLID_530_" clip-path="url(#XMLID_4_)">
				
					<image overflow="visible" opacity="0.78" width="761" height="761" xlink:href="61B293C4F8B2348B.png"  transform="matrix(0.24 0 0 0.24 128.0981 114.2213)">
				</image>
				<g>
					<circle fill="#5385C5" cx="219.3" cy="199.2" r="71.7"/>
					<circle fill="none" stroke="#1E4480" stroke-width="1.73" stroke-miterlimit="10" cx="219.3" cy="199.2" r="71.7"/>
				</g>
			</g>
			<linearGradient id="XMLID_5_" gradientUnits="userSpaceOnUse" x1="219.5641" y1="83.2725" x2="217.032" y2="265.9035">
				<stop  offset="0" style="stop-color:#FDB637"/>
				<stop  offset="0.6256" style="stop-color:#FFFFFF"/>
			</linearGradient>
			<path id="XMLID_531_" opacity="0.25" clip-path="url(#XMLID_4_)" fill="url(#XMLID_5_)" d="M299.7,209c0,0,5.1-34.3-15.5-60
				c-20.6-25.6-45.7-34-66.8-34s-52.2,9.7-69.3,38.3S136.4,216,136.4,216l6.6,1.1c0,0-7.4-34,9.5-58.1s37.7-36.4,65.4-36.4
				s53.8,16.8,64.9,36.2c11.1,19.5,10.9,41.1,9.2,53L299.7,209z"/>
			<path id="XMLID_532_" clip-path="url(#XMLID_4_)" fill="#1C588C" d="M244.5,132.8c0,0-1.2,3.1,0,4.5c1.2,1.4,2.7,3.9,0,4.2
				c-2.7,0.2-6.6,1.8-6.9,2.7c-0.2,0.9-0.7,2.7-2.4,1.8c-1.7-0.9-2.8-1.2-3-0.4c-0.1,0.8,0.5,1.7,2.3,1.9c1.8,0.2,3.2,0.8,1.3,1.3
				s-3.4,1.4-3.6,3.2c-0.2,1.8,0.4,4.7,2.9,5c2.5,0.2,4.6-0.9,5-2.8c0.4-1.9,2-3.8,3.7-3.2c1.7,0.6,7.7,5.3,8.5,5.1
				c0.8-0.2-3.1-5.1-4-6.2c-0.9-1.1,3.2-2.4,4.2-0.8s6.3,6.4,8,6.4s6.6,3.7,4.4,5.1s-7.2,3.3-9.4,2c-2.1-1.3-7.5-5.9-12.8-3.8
				c-5.3,2.1-11.9,8.4-12.9,14.8c-1.1,6.4-0.6,10,3.1,13.3c3.7,3.3,7.5,7.6,12.2,6.1s11.8-2.7,13.3,2.1c1.5,4.9,5.6,16.5,2.1,19.5
				s-1.5,17.6-1.4,19.9c0.1,2.4,0.7,5,3.7,4.6c3-0.4,6.5-0.8,6.5-5.1s1.8-9.3,4.2-11.4c2.4-2.1,6.8-9.6,7.6-17
				c0.8-7.4,2.3-19.7,0-23s-9-14.8-7.8-16c1.2-1.2,3.2,0.8,5.6,6.2c2.4,5.3,3.6,6.4,4.5,6.2c0.9-0.2,2.6,9.6,5.3,11.4
				C288.6,190.4,286.3,150.7,244.5,132.8z"/>
			<path id="XMLID_533_" clip-path="url(#XMLID_4_)" fill="#1C588C" d="M199.3,129.9c0,0-5.5,4.4-4.9,7.1c0.6,2.7,5.1,0.5,8.4-2.5
				s5.8-2,4.4-0.9s-0.5,2.1,0.9,1.8s1.7,1.3,0,2c-1.7,0.7-2.3,1.2-2.5,2.3c-0.2,1.1-1.5-0.4-2.6,0c-1.1,0.4-3.8,0-4,1.2
				c-0.2,1.2,3,1.2,2.8,1.5c-0.2,0.4-2.8,1.5-4.9,2.1c-2.1,0.6-2.5,1.8-2.5,2.7c-0.1,0.9-0.9,1.8-3.4,3.2s-9.4,6.3-9.9,9
				c-0.5,2.7-1.8,5-2.3,3.2s-2.4-3.4-4.5-2.8c-2.1,0.6-5.3,4.9-5.9,7.6s0.5,4.6,1.5,3c1.1-1.7,2.4-2.1,2.8-1.8
				c0.5,0.4-0.2,2.1-1.1,3c-0.8,0.8-0.5,1.9,0.5,2.7c0.9,0.8,3.4,2.5,2.7,3.2c-0.7,0.7-2,1.3-0.7,2.6c1.3,1.3,3.3,2.8,4.2,1.2
				c0.8-1.7,7.4-2,8.5-1.7c1.2,0.4,6.3,2.8,8.5,3.4c2.3,0.6,4.4,2.3,6.2,4.3c1.8,2,3.8,6.1,2.4,6.1s-1.1,1.9,1.3,1.7
				c2.4-0.2,5.5-0.6,6.2,0.6c0.7,1.2,3.9,3,7.2,2.4s5.1,3.8,4.6,4.3s-1.9,7.2-2.8,7.4c-0.9,0.1-2,1.8-0.9,2.3s0.7,2-1.1,4.2
				c-1.8,2.1-5.2,7.5-6.1,6.6s-3.9-0.9-5,1.1c-1.1,2-0.8,4.5-0.5,5.5c0.4,0.9,1.9,3.8-1.2,4.9c-3.1,1.1-5.9,2.9-6.5,5.1
				c-0.6,2.2-1.2,6.1,0.2,7.1s2.1,3.7,1.1,4s-6.9-3.2-8.9-8.4c-2-5.2-2.5-14.8-3.3-15.9c-0.8-1.1,0.5-6.4-2.8-8.9
				c-3.3-2.5-6.9-5.5-6.9-7.4s-1.2-5.3-3.4-6.9c-2.3-1.5-3.6-5.3-2.3-6.5c1.3-1.2,2.6-6.3,1.5-7.4c-1.1-1.1-4.9-5.9-5.1-7.5
				c-0.2-1.5-4.3-3.7-4.4-6.6c-0.1-3,0.1-13.8-3.8-18.9C161.1,156,174.2,135.6,199.3,129.9z"/>
		</g>
	</g>
	<g id="XMLID_536_">
		<g id="XMLID_537_">
			<path id="XMLID_538_" fill="#FFFFFF" d="M347.8,188.6c-0.1-0.3-0.5-0.5-0.8-0.5h-0.6c-0.3,0-0.7,0.2-0.8,0.5l-5,10.5
				c-0.1,0.3,0,0.5,0.3,0.5h1.2c0.5,0,0.7-0.2,0.8-0.5c0.1-0.3,0.4-0.8,0.5-0.9c0.1-0.2,0.3-0.2,0.6-0.2l5.4,0
				c0.3,0,0.5,0.1,0.6,0.2c0.1,0.1,0.3,0.6,0.5,0.9c0.1,0.3,0.4,0.5,0.8,0.5h1.7c0.3,0,0.4-0.2,0.3-0.5
				C353.1,198.9,347.8,188.6,347.8,188.6 M344.7,196.3c-0.3,0-0.5-0.2-0.3-0.5l2-4.2c0.1-0.3,0.3-0.3,0.5,0l1.9,4.2
				c0.1,0.3,0,0.5-0.3,0.5L344.7,196.3z M386.7,188.7v10.4c0,0.3,0.3,0.5,0.6,0.5h1.4c0.3,0,0.6-0.2,0.6-0.5v-10.4
				c0-0.3-0.2-0.6-0.5-0.6h-1.4C387,188.1,386.7,188.3,386.7,188.7 M363.7,195.2c-0.2-0.3-0.1-0.5,0.2-0.6c0,0,1.2-0.4,1.8-0.9
				c0.6-0.5,0.9-1.3,0.9-2.2c0-0.6-0.1-1.2-0.3-1.6c-0.2-0.4-0.5-0.8-0.9-1.1c-0.4-0.3-0.9-0.5-1.5-0.6c-0.6-0.1-1.3-0.2-1.3-0.2
				c-0.3,0-0.8,0-1.1,0h-5.7c-0.3,0-0.6,0.3-0.6,0.6v10.4c0,0.3,0.3,0.5,0.6,0.5h1.4c0.3,0,0.6-0.2,0.6-0.5l0-4.1c0,0,0,0,0,0
				c0,0,2.6,0,2.6,0c0.3,0,0.7,0.2,0.9,0.5l2.7,3.7c0.2,0.3,0.5,0.5,0.8,0.5h1.8c0.3,0,0.4-0.3,0.3-0.4
				C366.3,199,363.7,195.2,363.7,195.2 M362.6,193.1c-0.4,0.1-0.7,0.1-0.7,0.1c-0.3,0-0.8,0-1.1,0h-2.6c-0.3,0-0.6-0.3-0.6-0.6v-2.1
				c0-0.3,0.3-0.6,0.6-0.6h2.6c0.3,0,0.8,0,1.1,0c0,0,0.4,0,0.7,0.1c0.3,0.1,0.6,0.2,0.8,0.3c0.2,0.1,0.3,0.3,0.4,0.5
				c0.1,0.2,0.1,0.4,0.1,0.6s0,0.4-0.1,0.6c-0.1,0.2-0.2,0.4-0.4,0.5C363.2,192.9,362.9,193,362.6,193.1 M403.6,188.1
				c-0.3,0-0.6,0.2-0.6,0.5c0,0.1,0,6.7,0,6.7c0,0.3-0.2,0.4-0.4,0.2l-6.7-6.9c-0.2-0.2-0.5-0.4-1-0.4h-1.3c-0.4,0-0.6,0.2-0.6,0.4
				v10.7c0,0.2,0.2,0.4,0.5,0.4h1.3c0.3,0,0.5-0.2,0.5-0.5c0-0.1,0-7,0-7c0-0.3,0.2-0.4,0.4-0.2l7,7.2c0.2,0.2,0.5,0.4,1,0.4h0.9
				c0.3,0,0.6-0.3,0.6-0.6v-10.4c0-0.3-0.3-0.6-0.6-0.6H403.6z M376.4,194.6c-0.2,0.3-0.4,0.3-0.6,0l-3.3-6
				c-0.1-0.3-0.4-0.5-0.8-0.5H370c-0.3,0-0.6,0.3-0.6,0.6v10.4c0,0.3,0.2,0.5,0.6,0.5h1.1c0.3,0,0.5-0.2,0.5-0.5c0-0.1,0-7.6,0-7.6
				c0,0,4.1,7.6,4.1,7.6c0.1,0.3,0.5,0.3,0.7,0l4.1-7.5c0,0,0,7.3,0,7.5c0,0.3,0.2,0.5,0.6,0.5h1.3c0.3,0,0.6-0.2,0.6-0.6v-10.4
				c0-0.3-0.3-0.6-0.6-0.6h-1.7c-0.4,0-0.7,0.2-0.8,0.5L376.4,194.6z"/>
			<path id="XMLID_546_" fill="#FFFFFF" d="M326.1,193.8c0,5.6,5.7,5.9,6.9,5.9c3.8,0,5.4-1,5.5-1.1c0.2-0.1,0.5-0.4,0.5-0.9v-3.9
				c0-0.4-0.3-0.6-0.6-0.6h-4.8c-0.4,0-0.6,0.3-0.6,0.6v0.4c0,0.4,0.2,0.7,0.6,0.7h2.8c0.3,0,0.5,0.2,0.5,0.5c0,0,0,1.7,0,1.8
				c-0.5,0.2-3,1-5,0.5c-2.9-0.7-3.1-3.1-3.1-3.8c0-0.6,0.2-3.6,3.7-3.9c2.9-0.2,4.8,0.9,4.8,0.9c0.3,0.2,0.7,0.1,0.9-0.3
				c0,0,0.4-0.7,0.4-0.7c0.2-0.3,0.1-0.6-0.3-0.9c0,0-2-1.1-5.2-1.1C326.3,187.9,326.1,193.2,326.1,193.8"/>
			<path id="XMLID_547_" fill-rule="evenodd" clip-rule="evenodd" fill="#FFFFFF" d="M402.9,185.2h-7.5c-0.3,0-0.5-0.1-0.7-0.4
				c-0.1-0.2-0.1-0.5,0-0.7l3.8-6.5c0.1-0.2,0.4-0.4,0.7-0.4s0.5,0.1,0.6,0.4l3.8,6.5c0.1,0.2,0.1,0.5,0,0.7
				C403.5,185.1,403.2,185.2,402.9,185.2"/>
			<path id="XMLID_548_" fill="#FFFFFF" d="M408.1,197c0.7,0,1.3,0.6,1.3,1.3c0,0.7-0.6,1.3-1.3,1.3c-0.7,0-1.3-0.6-1.3-1.3
				C406.8,197.5,407.4,197,408.1,197 M408.1,199.4c0.6,0,1.1-0.5,1.1-1.1c0-0.6-0.5-1.1-1.1-1.1c-0.6,0-1.1,0.5-1.1,1.1
				C407.1,198.9,407.5,199.4,408.1,199.4 M407.6,197.5h0.6c0.4,0,0.5,0.1,0.5,0.4c0,0.2-0.2,0.4-0.4,0.4l0.4,0.7h-0.3l-0.4-0.7h-0.2
				v0.7h-0.3V197.5z M407.9,198.2h0.3c0.2,0,0.3,0,0.3-0.2c0-0.2-0.2-0.2-0.3-0.2h-0.3V198.2z"/>
		</g>
		<g id="XMLID_553_">
			<path id="XMLID_554_" fill="#FFFFFF" d="M423.6,199.6h-8.3v-12.7h8.3v1.4h-6.7v3.7h6.5v1.4h-6.5v4.9h6.7V199.6z"/>
			<path id="XMLID_556_" fill="#FFFFFF" d="M433.7,199.6h-1.8l-2.7-3.7l-2.8,3.7h-1.7l3.6-4.7l-3.6-4.8h1.8l2.7,3.7l2.7-3.7h1.7
				l-3.6,4.7L433.7,199.6z"/>
			<path id="XMLID_558_" fill="#FFFFFF" d="M436.9,199v4.1h-1.5v-13h1.5v1.1c1.1-0.9,2.1-1.3,3.2-1.3c1.1,0,2,0.4,2.7,1.3
				s1,2.1,1,3.6c0,1.5-0.4,2.7-1.2,3.7c-0.8,0.9-1.8,1.4-3,1.4C438.7,199.7,437.8,199.5,436.9,199z M436.9,192.3v5.6
				c0.8,0.4,1.6,0.6,2.3,0.6c0.9,0,1.6-0.3,2.2-1c0.5-0.6,0.8-1.5,0.8-2.7c0-2.4-0.9-3.6-2.6-3.6
				C438.8,191.2,437.9,191.6,436.9,192.3z"/>
			<path id="XMLID_561_" fill="#FFFFFF" d="M446,199.6v-9.5h1.5v1.5c1.2-1,2.3-1.5,3.3-1.5c0.4,0,0.7,0,1.1,0.1v1.5h-0.1
				c-0.5-0.1-0.9-0.2-1.4-0.2c-1,0-1.9,0.4-2.9,1.2v6.8H446z"/>
			<path id="XMLID_563_" fill="#FFFFFF" d="M457.4,199.8c-1.6,0-2.8-0.4-3.7-1.3c-0.9-0.9-1.3-2.1-1.3-3.6c0-1.6,0.4-2.8,1.3-3.7
				c0.8-0.9,1.9-1.4,3.3-1.4c1.3,0,2.2,0.4,2.9,1.1s1,1.8,1,3.2v0.8h-7c0,1.1,0.3,2,0.9,2.6c0.6,0.6,1.5,0.9,2.6,0.9
				s2.2-0.4,3.3-1.1h0.1v1.6C459.4,199.5,458.3,199.8,457.4,199.8z M453.9,193.8h5.6c0-1.9-0.9-2.8-2.6-2.8c-0.9,0-1.5,0.3-2.1,0.8
				C454.3,192.2,454,192.9,453.9,193.8z"/>
			<path id="XMLID_566_" fill="#FFFFFF" d="M465.7,199.8c-1.2,0-2.3-0.3-3.3-0.8v-1.7h0.1c1.1,0.8,2.3,1.3,3.4,1.3
				c1.6,0,2.3-0.5,2.3-1.5c0-0.4-0.1-0.7-0.3-0.9c-0.2-0.2-0.6-0.4-1.3-0.5c-0.5-0.1-1.2-0.2-1.9-0.4c-0.7-0.2-1.3-0.5-1.7-0.9
				c-0.4-0.4-0.6-1-0.6-1.6c0-0.8,0.3-1.5,1-2.1c0.7-0.5,1.6-0.8,2.7-0.8c1.2,0,2.2,0.2,3.1,0.7v1.6h-0.1c-1-0.7-2-1.1-3.1-1.1
				c-0.7,0-1.2,0.1-1.6,0.4c-0.4,0.2-0.6,0.6-0.6,1c0,0.4,0.1,0.7,0.3,0.9c0.2,0.2,0.6,0.4,1.3,0.5l1.9,0.4c0.8,0.2,1.3,0.5,1.7,0.9
				c0.4,0.4,0.6,1,0.6,1.6c0,0.9-0.4,1.6-1.1,2.1C467.9,199.5,466.9,199.8,465.7,199.8z"/>
			<path id="XMLID_568_" fill="#FFFFFF" d="M474.3,199.8c-1.2,0-2.3-0.3-3.3-0.8v-1.7h0.1c1.1,0.8,2.3,1.3,3.4,1.3
				c1.6,0,2.3-0.5,2.3-1.5c0-0.4-0.1-0.7-0.3-0.9c-0.2-0.2-0.6-0.4-1.3-0.5c-0.5-0.1-1.2-0.2-1.9-0.4c-0.7-0.2-1.3-0.5-1.7-0.9
				c-0.4-0.4-0.6-1-0.6-1.6c0-0.8,0.3-1.5,1-2.1c0.7-0.5,1.6-0.8,2.7-0.8c1.2,0,2.2,0.2,3.1,0.7v1.6h-0.1c-1-0.7-2-1.1-3.1-1.1
				c-0.7,0-1.2,0.1-1.6,0.4c-0.4,0.2-0.6,0.6-0.6,1c0,0.4,0.1,0.7,0.3,0.9c0.2,0.2,0.6,0.4,1.3,0.5l1.9,0.4c0.8,0.2,1.3,0.5,1.7,0.9
				c0.4,0.4,0.6,1,0.6,1.6c0,0.9-0.4,1.6-1.1,2.1C476.4,199.5,475.5,199.8,474.3,199.8z"/>
		</g>
	</g>
	<path id="XMLID_570_" opacity="0.15" fill="#FFFFFF" d="M502.9,22.3l88.9,0c0,0,22.4-0.4,22.4,18.9s0,248.5,0,248.5v83.5
		c0,0-0.1,5.1-1.7,6.1c-1.6,1-221.7,0-221.7,0L502.9,22.3z"/>
	<path id="XMLID_571_" fill="#A9B3BE" d="M690.7,376.4c0,0,2-0.2,2,0.8s0,18.5,0,18.5s0.3,2.1-2,3.3c-2.3,1.3-9.3,6.4-26.3,11.3
		c0,0-3.7,0.7-4.5,0.7s-213.5,0-213.5,0H265.6H82.8h-40c0,0-2.9,0.9-15.1-4.1c-12.1-4.9-18.4-7.9-18.4-12.1c0-4.3,0-17.6,0-17.6
		s-0.1-0.8,1.9-0.8C13.2,376.4,690.7,376.4,690.7,376.4z"/>
	<path id="XMLID_572_" fill="#CCD1D9" d="M296.4,376.4c0,0-0.7,10.3,5,10.4s93.1,0,93.1,0s6.2,0.3,6.1-10.4L296.4,376.4z"/>
</g>
<circle fill="none" stroke="#FFFFFF" stroke-width="3" stroke-miterlimit="10" cx="356.8" cy="232.7" r="62.2"/>
<path fill="#FFFFFF" d="M342.6,201.9v51l51-22.5C393.6,230.4,340.4,199.7,342.6,201.9z"/>
</svg>
