<?xml version="1.0" encoding="utf-8"?>
<!-- Generator: Adobe Illustrator 18.0.0, SVG Export Plug-In . SVG Version: 6.00 Build 0)  -->
<!DOCTYPE svg PUBLIC "-//W3C//DTD SVG 1.1//EN" "http://www.w3.org/Graphics/SVG/1.1/DTD/svg11.dtd">
<svg version="1.1" id="Layer_1" xmlns="http://www.w3.org/2000/svg" xmlns:xlink="http://www.w3.org/1999/xlink" x="0px" y="0px"
	 viewBox="0 0 700 425" enable-background="new 0 0 700 425" xml:space="preserve">
<path id="XMLID_21_" fill="#CCD1D9" d="M581.9,18.6c0,0,21.8-0.8,21.8,18.4s0,75,0,75v101.1v101.3v41.3c0,0,0.5,10.8-3.1,11
	s-386.1,3.5-386.1,3.5l-119-5.7c0,0-4.2,1.7-4.2-9c0-10.6,0-119.4,0-119.4V129.2V39.9c0,0-1.9-21.3,20.9-21.3s154.2,0,154.2,0h220
	L581.9,18.6z"/>
<path id="XMLID_20_" fill="#A9B3BE" d="M583.4,20.6c0,0,18.7,1.6,18.7,16.7s0,28,0,28v43.4V154v57.4v54v53.1v37c0,0,1,8.2-11.5,9.9
	l-232.1,11.5l-256.9-12c0,0-8.7-0.9-8.7-12.4s0-79.2,0-79.2V169.4V56V38c0,0,1-17.1,17-17.3c16-0.2,173.2,0,173.2,0l198.7-0.1
	L583.4,20.6z"/>
<path id="XMLID_19_" fill="#444A54" d="M584.3,22.2c0,0,16.3,1.9,16.3,15.3s0,50.2,0,50.2v53.5v58.5v48.5v53.1v51.3v2.5
	c0,0,0.1,7-10.4,8.9s-42.2,9.3-42.2,9.3l-92.2-3l-74.1,0.8l-93.8,0.3l-78.7-1.5l-77.3,0.4l-28.2-6.5c0,0-8.4-1.1-8.4-10.1
	c0-9,0-34.5,0-34.5v-59.6v-51.7v-53.8V95.7V44.1v-7.5c0,0,1.1-14.3,14.5-14.3s75.9,0,75.9,0h94.5h103.6h103H584.3z"/>
<rect id="XMLID_18_" x="120.6" y="48.1" fill="#666F7A" width="453.9" height="284.2"/>
<g id="XMLID_1_">
	<rect id="XMLID_3134_" x="120" y="47.3" fill="#0B3B5C" width="456" height="286"/>
	<g id="XMLID_754_">
		<defs>
			<rect id="XMLID_756_" x="120" y="49.3" width="454" height="284"/>
		</defs>
		<clipPath id="XMLID_9_">
			<use xlink:href="#XMLID_756_"  overflow="visible"/>
		</clipPath>
		<g id="XMLID_780_" clip-path="url(#XMLID_9_)">
			<g id="XMLID_2716_">
				<g id="XMLID_2732_">
					<g opacity="0.15">
						<rect x="158.4" y="80.7" fill="#010101" width="114.3" height="135.3"/>
					</g>
					<g>
						<rect x="153.4" y="74.6" fill="#E6E6E5" width="114.3" height="135.3"/>
					</g>
				</g>
				<g id="XMLID_2723_">
					<rect id="XMLID_2731_" x="199.7" y="136.5" fill="#2BA9E0" width="8.6" height="58.4"/>
					<rect id="XMLID_2730_" x="212.7" y="146.5" fill="#8CC541" width="8.6" height="48.5"/>
					<rect id="XMLID_2729_" x="225.7" y="165.2" fill="#8CC541" width="8.6" height="29.7"/>
					<rect id="XMLID_2728_" x="186.7" y="136.5" fill="#8CC541" width="8.6" height="58.4"/>
					<rect id="XMLID_2727_" x="173.7" y="146.5" fill="#2BA9E0" width="8.6" height="48.5"/>
					<rect id="XMLID_2726_" x="160.7" y="165.2" fill="#8CC541" width="8.6" height="29.7"/>
					<rect id="XMLID_2725_" x="238.8" y="146.5" fill="#2BA9E0" width="8.6" height="48.5"/>
					<rect id="XMLID_2724_" x="251.8" y="177.1" fill="#2BA9E0" width="8.6" height="17.8"/>
				</g>
				<g id="XMLID_2717_">
					<path id="XMLID_2722_" fill="#B4B2B4" d="M246.8,101.8h-44.2c-0.8,0-1.5-0.7-1.5-1.5v-3.1c0-0.8,0.7-1.5,1.5-1.5h44.2
						c0.8,0,1.5,0.7,1.5,1.5v3.1C248.3,101.1,247.6,101.8,246.8,101.8z"/>
					<path id="XMLID_2721_" fill="#66BF6F" d="M226.7,114h-24.2c-0.8,0-1.5-0.7-1.5-1.5v-3.1c0-0.8,0.7-1.5,1.5-1.5h24.2
						c0.8,0,1.5,0.7,1.5,1.5v3.1C228.2,113.3,227.5,114,226.7,114z"/>
					<g id="XMLID_2718_">
						<path id="XMLID_2720_" fill="#989798" d="M176.1,95.4c-2.5,0.1-3.4,2.7-3.4,4c0,0.9,0.2,3.1,0.6,5.2l0.1,2.8
							c0,1.3,1.1,2.4,2.5,2.4c1.3,0,2.3-1,2.4-2.5c0-0.6-0.2-1.8-0.4-3.1c0-2.5,1.4-2.4,1.3-5.5C179.1,96.9,178,95.3,176.1,95.4z"/>
						<path id="XMLID_2719_" fill="#989798" d="M185.6,99.9c-1.9-0.4-3.3,0.8-3.7,2.7c-0.7,3,0.7,3.2,0.2,5.7
							c-0.5,1.2-0.9,2.4-1,2.9c-0.3,1.4,0.5,2.6,1.8,2.9c1.3,0.3,2.6-0.5,2.9-1.8l0.6-2.8c0.8-2,1.5-4.1,1.7-5
							C188.4,103.2,188.1,100.5,185.6,99.9z"/>
					</g>
				</g>
			</g>
			<g id="XMLID_2604_">
				<g id="XMLID_2698_">
					<g opacity="0.15">
						<rect x="296.9" y="80.7" fill="#010101" width="114.3" height="135.3"/>
					</g>
					<g>
						<rect x="291.8" y="74.6" fill="#E6E6E5" width="114.3" height="135.3"/>
					</g>
				</g>
				<g id="XMLID_2615_">
					<path id="XMLID_2697_" fill="#B4B2B4" d="M390.1,101.8h-44.2c-0.8,0-1.5-0.7-1.5-1.5v-3.1c0-0.8,0.7-1.5,1.5-1.5h44.2
						c0.8,0,1.5,0.7,1.5,1.5v3.1C391.6,101.1,390.9,101.8,390.1,101.8z"/>
					<path id="XMLID_2696_" fill="#B4B2B4" d="M370,114h-24.2c-0.8,0-1.5-0.7-1.5-1.5v-3.1c0-0.8,0.7-1.5,1.5-1.5H370
						c0.8,0,1.5,0.7,1.5,1.5v3.1C371.5,113.3,370.8,114,370,114z"/>
					<g id="XMLID_2616_">
						<path id="XMLID_2670_" fill="#989798" d="M327.8,98.3c-0.3-0.9-0.5-1.7-0.7-2.4c-0.3-0.8,0.1-1.2,0.8-1.2c1.4,0,2.8-0.1,4.2,0
							c1.3,0.1,2.5,1.3,2.6,2.5c0.1,1.2-0.8,2.4-2.1,2.9c-0.6,0.2-1,0.1-1.2-0.4c-0.2-0.5,0.3-0.8,0.7-0.8c1-0.2,1.4-0.9,1.2-1.8
							c-0.2-0.9-1-0.9-1.8-1c-2.7,0-2.7,0-1.9,2.5c0.4,1.2,0.2,2.1-0.7,3c-2.1,2.3-4.2,4.6-6.2,6.9c-1.2,1.3-2.3,1.1-3-0.5
							c-1.4-3.7-2.8-7.5-4.1-11.2c-0.3-0.8-0.5-1.4-1.6-1.3c-0.4,0.1-0.8-0.2-0.8-0.7c0-0.5,0.3-0.8,0.8-0.8c1.6,0,3.3,0,4.9,0
							c0.3,0,0.5,0.1,0.5,0.4c0,0.3-0.2,0.4-0.4,0.5c-0.1,0-0.2,0-0.2,0.1c-0.5,0.3-1.5,0-1.6,0.8c-0.1,0.8,0.5,1.5,0.7,2.3
							c0.1,0.3,0.4,0.3,0.7,0.3C321.5,98.3,324.6,98.3,327.8,98.3z M321.2,107.3c2.3-2.5,4.4-4.7,6.8-7.3c-3.2,0-5.9,0-8.7,0
							c-0.5,0-0.7,0.2-0.5,0.7C319.6,102.8,320.4,104.9,321.2,107.3z"/>
						<path id="XMLID_2667_" fill="#989798" d="M318.5,108c0,3.3-2.8,6-6,6c-3.3,0-6.1-2.8-6.1-6.1c0-3.4,2.8-6.2,6.3-6.1
							C315.9,101.8,318.6,104.5,318.5,108z M308.2,107.7c0,2.5,1.9,4.5,4.2,4.5c2.4,0,4.4-2,4.4-4.4c0-2.5-1.9-4.4-4.3-4.4
							C310,103.4,308.2,105.2,308.2,107.7z"/>
						<path id="XMLID_2664_" fill="#989798" d="M332.2,101.9c3.5,0,6.1,2.7,6.1,6.1c0,3.3-2.8,5.9-6.2,5.9c-3.4,0-6-2.6-6-6.1
							C326.1,104.5,328.7,101.9,332.2,101.9z M332.2,112.3c2.4,0,4.3-1.8,4.4-4.2c0.1-2.4-2-4.5-4.3-4.6c-2.4-0.1-4.4,1.9-4.5,4.4
							C327.8,110.4,329.6,112.3,332.2,112.3z"/>
					</g>
				</g>
				<g id="XMLID_2605_">
					<path id="XMLID_2614_" fill="none" stroke="#C7C7C6" stroke-width="6.3733" d="M370.1,192.7c6-5.6,9.8-13.6,9.8-22.5
						c0-17-13.8-30.8-30.8-30.8c-10.6,0-19.9,5.3-25.5,13.5"/>
					<path id="XMLID_2613_" fill="none" stroke="#31A7DF" stroke-width="6.3733" d="M366.5,144.9c-5-3.4-10.9-5.3-17.4-5.3
						c-17.2,0-31.1,13.9-31.1,31.1c0,9,3.8,17.1,9.9,22.7"/>
					
						<text id="XMLID_2606_" transform="matrix(1 0 0 1 332.4737 173.5799)" fill="#989798" font-family="'OpenSans-Bold'" font-size="15.9597">64%</text>
				</g>
			</g>
			<g id="XMLID_2603_">
				<g opacity="0.15">
					<rect x="436.5" y="80.7" fill="#010101" width="114.3" height="135.3"/>
				</g>
				<g>
					<rect x="431.5" y="74.6" fill="#E6E6E5" width="114.3" height="135.3"/>
				</g>
			</g>
			<g id="XMLID_2512_">
				<g id="XMLID_2602_">
					<g opacity="0.15">
						<rect x="158.4" y="241.9" fill="#010101" width="114.3" height="135.3"/>
					</g>
					<g>
						<rect x="153.4" y="235.8" fill="#E6E6E5" width="114.3" height="135.3"/>
					</g>
				</g>
				<path id="XMLID_2600_" fill="none" stroke="#B4B2B4" stroke-width="6.3733" d="M231.4,353.9c6-5.6,9.8-13.6,9.8-22.5
					c0-17-13.8-30.8-30.8-30.8c-10.6,0-19.9,5.3-25.5,13.5"/>
				<path id="XMLID_2599_" fill="#B4B2B4" d="M235,255.2h-44.2c-0.8,0-1.5-0.7-1.5-1.5v-3.1c0-0.8,0.7-1.5,1.5-1.5H235
					c0.8,0,1.5,0.7,1.5,1.5v3.1C236.5,254.5,235.8,255.2,235,255.2z"/>
				<path id="XMLID_2598_" fill="#F69322" d="M214.9,267.4h-24.2c-0.8,0-1.5-0.7-1.5-1.5v-3.1c0-0.8,0.7-1.5,1.5-1.5h24.2
					c0.8,0,1.5,0.7,1.5,1.5v3.1C216.4,266.7,215.8,267.4,214.9,267.4z"/>
				<path id="XMLID_2597_" fill="none" stroke="#31A7DF" stroke-width="6.3733" d="M227.8,306c-5-3.4-10.9-5.3-17.4-5.3
					c-17.2,0-31.1,13.9-31.1,31.1c0,9,3.8,17.1,9.9,22.7"/>
				
					<text id="XMLID_2596_" transform="matrix(1 0 0 1 196.9424 334.4193)" fill="#989798" font-family="'OpenSans-Bold'" font-size="12.8338">34%</text>
				<path id="XMLID_2595_" fill="#989798" d="M174.3,247.6c-5.7,0-10.3,4.6-10.3,10.3c0,3.1,1.4,5.9,3.6,7.8l14.6-14.6
					C180.2,249,177.4,247.6,174.3,247.6z"/>
				<path id="XMLID_2594_" fill="#818181" d="M184.6,258c0-2.6-1-4.9-2.5-6.8l-14.6,14.6c1.8,1.6,4.2,2.5,6.8,2.5
					C180,268.3,184.6,263.7,184.6,258z"/>
			</g>
			<g id="XMLID_1197_">
				<g id="XMLID_2476_">
					<g opacity="0.15">
						<rect x="436.5" y="241.9" fill="#010101" width="114.3" height="135.3"/>
					</g>
					<g>
						<rect x="431.5" y="235.8" fill="#888888" width="114.3" height="135.3"/>
					</g>
				</g>
				<path id="XMLID_2417_" fill="none" stroke="#B4B2B4" stroke-width="6.3733" d="M509.5,353.9c6-5.6,9.8-13.6,9.8-22.5
					c0-17-13.8-30.8-30.8-30.8c-10.6,0-19.9,5.3-25.5,13.5"/>
				<path id="XMLID_2292_" fill="#B4B2B4" d="M514.2,255.2h-44.2c-0.8,0-1.5-0.7-1.5-1.5v-3.1c0-0.8,0.7-1.5,1.5-1.5h44.2
					c0.8,0,1.5,0.7,1.5,1.5v3.1C515.7,254.5,515,255.2,514.2,255.2z"/>
				<path id="XMLID_2291_" fill="#B4B2B4" d="M494.1,267.4h-24.2c-0.8,0-1.5-0.7-1.5-1.5v-3.1c0-0.8,0.7-1.5,1.5-1.5h24.2
					c0.8,0,1.5,0.7,1.5,1.5v3.1C495.6,266.7,494.9,267.4,494.1,267.4z"/>
				<path id="XMLID_1200_" fill="none" stroke="#31A7DF" stroke-width="6.3733" d="M505.9,306c-5-3.4-10.9-5.3-17.4-5.3
					c-17.2,0-31.1,13.9-31.1,31.1c0,9,3.8,17.1,9.9,22.7"/>
				
					<text id="XMLID_1199_" transform="matrix(1 0 0 1 475.0723 334.4193)" fill="#989798" font-family="'OpenSans-Bold'" font-size="12.8338">34%</text>
				<circle id="XMLID_1198_" fill="#B4B2B4" cx="453.4" cy="257.8" r="10.8"/>
			</g>
			<g id="XMLID_1131_">
				<g id="XMLID_1196_">
					<g opacity="0.15">
						<rect x="296.9" y="241.9" fill="#010101" width="114.3" height="135.3"/>
					</g>
					<g>
						<rect x="291.8" y="235.8" fill="#E6E6E5" width="114.3" height="135.3"/>
					</g>
				</g>
				<path id="XMLID_1193_" fill="none" stroke="#B4B2B4" stroke-width="6.3733" d="M369.8,353.9c6-5.6,9.8-13.6,9.8-22.5
					c0-17-13.8-30.8-30.8-30.8c-10.6,0-19.9,5.3-25.5,13.5"/>
				<path id="XMLID_1187_" fill="#B4B2B4" d="M371.3,255.2h-44.2c-0.8,0-1.5-0.7-1.5-1.5v-3.1c0-0.8,0.7-1.5,1.5-1.5h44.2
					c0.8,0,1.5,0.7,1.5,1.5v3.1C372.9,254.5,372.2,255.2,371.3,255.2z"/>
				<path id="XMLID_1165_" fill="#B4B2B4" d="M351.2,267.4h-24.2c-0.8,0-1.5-0.7-1.5-1.5v-3.1c0-0.8,0.7-1.5,1.5-1.5h24.2
					c0.8,0,1.5,0.7,1.5,1.5v3.1C352.8,266.7,352.1,267.4,351.2,267.4z"/>
				<path id="XMLID_1148_" fill="none" stroke="#31A7DF" stroke-width="6.3733" d="M366.3,306c-5-3.4-10.9-5.3-17.4-5.3
					c-17.2,0-31.1,13.9-31.1,31.1c0,9,3.8,17.1,9.9,22.7"/>
				
					<text id="XMLID_1133_" transform="matrix(1 0 0 1 335.4024 334.4193)" fill="#989798" font-family="'OpenSans-Bold'" font-size="12.8338">34%</text>
				<circle id="XMLID_1132_" fill="#DBA3AA" cx="311.6" cy="257.8" r="10.8"/>
			</g>
			<g id="XMLID_784_">
				<path id="XMLID_1130_" fill="#F69322" d="M510.3,101.9h-42.4c-0.8,0-1.5-0.7-1.5-1.5v-2.9c0-0.8,0.7-1.5,1.5-1.5h42.4
					c0.8,0,1.5,0.7,1.5,1.5v2.9C511.8,101.2,511.1,101.9,510.3,101.9z"/>
				<path id="XMLID_1129_" fill="#B4B2B4" d="M500.7,113.7h-23.1c-0.8,0-1.5-0.7-1.5-1.5v-2.9c0-0.8,0.7-1.5,1.5-1.5h23.1
					c0.8,0,1.5,0.7,1.5,1.5v2.9C502.2,113,501.5,113.7,500.7,113.7z"/>
				<circle id="XMLID_1105_" opacity="0.56" fill="#0B3B5C" cx="488.7" cy="153.7" r="31.2"/>
				<path id="XMLID_1032_" fill="#B4B2B4" d="M501.2,198.9H477c-0.8,0-1.5-0.7-1.5-1.5v-3.1c0-0.8,0.7-1.5,1.5-1.5h24.2
					c0.8,0,1.5,0.7,1.5,1.5v3.1C502.7,198.2,502.1,198.9,501.2,198.9z"/>
				<g id="XMLID_909_">
					<path id="XMLID_983_" fill="#FBD51B" d="M496.2,135.9v2.5h-14.5v-2.5h-10.8c0,2.4,1.5,14,7.4,19.1c5.9,5.1,8.5,7.3,8.5,10.3
						c0,4.4-6.5,3.4-6.5,6.3h17.3c0-2.9-6.5-1.9-6.5-6.3c0-3,2.6-5.2,8.5-10.3c5.9-5.1,7.4-16.7,7.4-19.1H496.2z M473,137.4h7.1v0.9
						v1.3h0c0,11.2,3.2,17.2,3.2,17.2C473,151.5,473,137.4,473,137.4z M494.7,156.9c0,0,3.2-6,3.2-17.2h0v-1.3v-0.9h7.1
						C505,137.4,505,151.5,494.7,156.9z"/>
					<rect id="XMLID_980_" x="478.6" y="172.6" fill="#FBD51B" width="20.8" height="2.6"/>
				</g>
			</g>
		</g>
	</g>
</g>
<path id="XMLID_25_" fill="#A9B3BE" d="M678,363c0,0,1.9-0.2,1.9,0.8s0,18,0,18s0.3,2-1.9,3.2s-9.1,6.2-25.6,11c0,0-3.6,0.7-4.4,0.7
	s-207.7,0-207.7,0H264.6H86.8H47.9c0,0-2.9,0.8-14.7-4s-17.9-7.7-17.9-11.8c0-4.2,0-17.1,0-17.1s-0.1-0.8,1.8-0.8
	C19.1,363,678,363,678,363z"/>
<path id="XMLID_26_" fill="#CCD1D9" d="M294.6,363c0,0-0.6,10.1,4.9,10.1c5.5,0.1,90.6,0,90.6,0s6,0.3,6-10.1L294.6,363z"/>
<path id="XMLID_24_" opacity="0.15" fill="#FFFFFF" d="M495.5,18.6l86.4,0c0,0,21.8-0.4,21.8,18.4s0,241.7,0,241.7v81.2
	c0,0-0.1,5-1.6,5.9s-215.6,0-215.6,0L495.5,18.6z"/>
</svg>
