<?xml version="1.0" encoding="utf-8"?>
<!-- Generator: Adobe Illustrator 18.0.0, SVG Export Plug-In . SVG Version: 6.00 Build 0)  -->
<!DOCTYPE svg PUBLIC "-//W3C//DTD SVG 1.1//EN" "http://www.w3.org/Graphics/SVG/1.1/DTD/svg11.dtd">
<svg version="1.1" id="Layer_1" xmlns="http://www.w3.org/2000/svg" xmlns:xlink="http://www.w3.org/1999/xlink" x="0px" y="0px"
	 viewBox="0 0 50 50" enable-background="new 0 0 50 50" xml:space="preserve">
<circle fill="#949699" cx="25" cy="25" r="24.5"/>
<g>
	<path fill="#FFFFFF" d="M40.8,13.7l-1.9-0.3c-0.2-0.1-0.3-0.2-0.1-0.3l1.1-1.6c0.1-0.2,0.1-0.4-0.1-0.5l-1-1
		c-0.1-0.1-0.3-0.1-0.5-0.1l-1.6,1.1c-0.1,0.1-0.3,0.1-0.3-0.1l-0.3-1.9c0-0.2-0.2-0.3-0.4-0.3H34c-0.1,0-0.3,0.1-0.3,0.3l-0.3,1.9
		c0,0.2-0.2,0.3-0.3,0.1l-1.6-1.1c-0.1-0.1-0.4-0.1-0.5,0.1l-1,1c-0.1,0.1-0.2,0.3-0.1,0.5l1.1,1.6c0.1,0.1,0.1,0.3-0.1,0.3
		l-1.9,0.3c-0.2,0.1-0.3,0.2-0.3,0.4v1.5c0,0.2,0.1,0.3,0.3,0.4l1.9,0.3c0.2,0.1,0.3,0.2,0.1,0.3l-1.1,1.6c-0.1,0.1-0.1,0.4,0.1,0.5
		l1,1c0.1,0.1,0.3,0.1,0.5,0.1l1.6-1.1c0.1-0.1,0.3-0.1,0.3,0.1l0.3,1.9c0.1,0.2,0.2,0.3,0.4,0.3h1.5c0.2,0,0.3-0.1,0.4-0.3l0.3-1.9
		c0.1-0.2,0.2-0.3,0.3-0.1l1.6,1.1c0.1,0.1,0.4,0.1,0.5-0.1l1-1c0.1-0.1,0.1-0.3,0.1-0.5l-1.2-1.7c-0.1-0.1-0.1-0.3,0.1-0.3l1.9-0.3
		c0.2-0.1,0.3-0.2,0.3-0.4v-1.4C41.1,13.9,41,13.7,40.8,13.7z M34.8,16.9c-1.1,0-2-0.9-2-2s0.9-2,2-2c1.1,0,2,0.9,2,2
		C36.7,16,35.9,16.9,34.8,16.9z"/>
	<path fill="#FFFFFF" d="M31.9,27.5l-3.8-0.7c-0.3-0.1-0.5-0.4-0.3-0.7l2.2-3.3c0.2-0.3,0.1-0.8-0.1-1l-2.1-2.1
		c-0.3-0.3-0.7-0.3-1-0.1l-3.3,2.2c-0.3,0.2-0.6,0.1-0.7-0.3l-0.7-3.8c-0.1-0.3-0.4-0.7-0.8-0.7h-3c-0.4,0-0.7,0.3-0.8,0.7l-0.7,3.8
		c-0.1,0.3-0.4,0.5-0.7,0.3l-3.3-2.2c-0.3-0.2-0.8-0.1-1,0.1l-2.1,2c-0.3,0.3-0.3,0.7-0.1,1l2.2,3.3c0.2,0.3,0.1,0.6-0.3,0.7
		l-3.8,0.7c-0.3,0.1-0.7,0.4-0.7,0.8v3c0,0.4,0.3,0.7,0.7,0.8l3.8,0.7c0.3,0.1,0.5,0.4,0.3,0.7l-2.2,3.3c-0.3,0.3-0.2,0.8,0.1,1.1
		l2.1,2.1c0.3,0.3,0.7,0.3,1,0.1l3.3-2.2c0.3-0.2,0.6-0.1,0.7,0.3l0.7,3.8c0.1,0.3,0.4,0.7,0.8,0.7h3c0.4,0,0.7-0.3,0.8-0.7l0.7-3.8
		c0.1-0.3,0.4-0.5,0.7-0.3l3.3,2.2c0.3,0.2,0.8,0.1,1-0.1l2.1-2.1c0.3-0.3,0.3-0.7,0.1-1l-2.2-3.3c-0.2-0.3-0.1-0.6,0.3-0.7l3.8-0.7
		c0.3-0.1,0.7-0.4,0.7-0.8v-3C32.6,27.9,32.3,27.5,31.9,27.5z M19.9,34.3c-2.6,0-4.6-2-4.6-4.6s2-4.6,4.6-4.6c2.5,0,4.6,2,4.6,4.6
		C24.5,32.3,22.4,34.3,19.9,34.3z"/>
</g>
</svg>
